<svg width="337" height="334" viewBox="0 0 337 334" fill="none" xmlns="http://www.w3.org/2000/svg">
<circle cx="121.32" cy="118.32" r="48.2016" fill="#00F3FF" stroke="black" stroke-width="4.69686"/>
<path d="M119.016 82.2918L121.32 75.2867L123.624 82.2918C128.872 98.2505 141.389 110.767 157.348 116.016L164.353 118.32L157.348 120.624C141.389 125.872 128.872 138.389 123.624 154.348L121.32 161.353L119.016 154.348C113.768 138.389 101.251 125.872 85.292 120.624L78.2868 118.32L85.292 116.016C101.251 110.767 113.768 98.2505 119.016 82.2918Z" fill="#FF0052" stroke="black" stroke-width="4.69686"/>
<circle cx="121.32" cy="212.68" r="48.2016" fill="#FF0052" stroke="black" stroke-width="4.69686"/>
<circle cx="215.68" cy="118.32" r="48.2016" fill="#FF0052" stroke="black" stroke-width="4.69686"/>
<circle cx="215.68" cy="212.68" r="48.2016" fill="black" stroke="black" stroke-width="4.69686"/>
<path d="M213.376 176.652L215.68 169.647L217.984 176.652C223.232 192.611 235.749 205.128 251.708 210.376L258.713 212.68L251.708 214.984C235.749 220.232 223.232 232.749 217.984 248.708L215.68 255.713L213.376 248.708C208.127 232.749 195.61 220.232 179.652 214.984L172.647 212.68L179.652 210.376C195.61 205.128 208.127 192.611 213.376 176.652Z" fill="#00F3FF" stroke="black" stroke-width="4.69686"/>
</svg>
