<svg width="289" height="144" viewBox="0 0 289 144" fill="none" xmlns="http://www.w3.org/2000/svg">
<path d="M287 72C287 110.621 255.027 142 215.5 142C175.973 142 144 110.621 144 72C144 33.3787 175.973 2 215.5 2C255.027 2 287 33.3787 287 72Z" fill="#FF0052" stroke="black" stroke-width="4"/>
<path d="M218 72C218 110.621 186.027 142 146.5 142C106.973 142 75 110.621 75 72C75 33.3787 106.973 2 146.5 2C186.027 2 218 33.3787 218 72Z" fill="#00F3FF" stroke="black" stroke-width="4"/>
<path d="M145 72C145 110.621 113.027 142 73.5 142C33.9726 142 2 110.621 2 72C2 33.3787 33.9726 2 73.5 2C113.027 2 145 33.3787 145 72Z" stroke="black" stroke-width="4"/>
</svg>
