<svg width="146" height="266" viewBox="0 0 146 266" fill="none" xmlns="http://www.w3.org/2000/svg">
<path d="M80.3646 4.0942C47.3215 22.4246 -21.208 54.6745 40.0694 111.928C56.5061 127.286 73.0744 140.102 92.1175 136.326C107.517 133.273 95.018 112.768 79.8384 108.312C60.2905 102.574 44.0631 104.079 27.9679 113.032C14.1075 120.742 5.05385 127.395 3.74538 144.404C1.48324 173.809 28.375 199.639 58.8048 220.215C82.0322 235.921 97.3471 245.945 117.9 253.509C121.237 254.737 142.422 261.733 141.677 261.775C128.514 262.519 108.292 260.275 94.3021 258.677C89.8565 258.24 86.6497 258.155 83.0306 257.759C80.3911 257.471 88.0424 258.075 89.8565 258.24C105.417 259.658 123.891 261.709 139.119 261.88C148.663 261.988 133.024 245.25 126.35 239.233C115.631 229.569 106.328 221.182 99.6493 213.696" stroke="#FF0052" stroke-width="7" stroke-linecap="round"/>
</svg>
