<svg width="326" height="239" viewBox="0 0 326 239" fill="none" xmlns="http://www.w3.org/2000/svg">
<g clip-path="url(#clip0_23_193)">
<path d="M180.457 -58.1813L180.437 -58.1719L161.569 -49.0772C161.569 -49.0769 161.568 -49.0767 161.568 -49.0764C160.765 -48.6887 159.89 -48.4741 158.999 -48.4465C158.108 -48.419 157.222 -48.5791 156.397 -48.9166C156.396 -48.9168 156.396 -48.917 156.395 -48.9172L136.829 -56.8995C136.829 -56.8996 136.829 -56.8996 136.828 -56.8996C136.167 -57.1691 135.439 -57.2319 134.741 -57.0797C134.043 -56.9275 133.408 -56.5674 132.919 -56.0469C132.429 -55.5264 132.109 -54.8699 132.001 -54.1639C131.892 -53.4583 131.999 -52.7363 132.309 -52.093C132.309 -52.0927 132.309 -52.0925 132.309 -52.0922C132.309 -52.0921 132.309 -52.0919 132.309 -52.0917L141.483 -33.0608C141.483 -33.059 141.484 -33.0571 141.485 -33.0553C141.874 -32.2527 142.089 -31.3772 142.117 -30.4857C142.144 -29.5939 141.984 -28.7064 141.645 -27.8811C141.644 -27.8795 141.643 -27.878 141.643 -27.8764L133.662 -8.31472C133.662 -8.31443 133.662 -8.31414 133.662 -8.31385C133.393 -7.65251 133.33 -6.9251 133.482 -6.22735C133.634 -5.52942 133.994 -4.89395 134.515 -4.40462L180.457 -58.1813ZM180.457 -58.1813L180.476 -58.191M180.457 -58.1813L180.476 -58.191M180.476 -58.191C181.075 -58.4902 181.744 -58.6206 182.412 -58.568M180.476 -58.191L182.412 -58.568M182.412 -58.568C183.072 -58.516 183.707 -58.2868 184.248 -57.9046M182.412 -58.568L184.248 -57.9046M184.248 -57.9046C184.874 -57.439 185.329 -56.7792 185.541 -56.0278C185.755 -55.2706 185.71 -54.4636 185.414 -53.7347C185.414 -53.7346 185.413 -53.7344 185.413 -53.7342C185.413 -53.7339 185.413 -53.7336 185.413 -53.7333L177.431 -34.167C177.43 -34.1659 177.43 -34.1648 177.429 -34.1637L184.248 -57.9046ZM70.3105 142.762L70.2992 142.751L70.2878 142.74C69.0789 141.616 68.2421 140.149 67.8892 138.535C67.5363 136.922 67.6842 135.24 68.313 133.713L68.3168 133.703L87.1854 87.4551L87.1874 87.4503C87.727 86.1212 87.9828 84.6939 87.9385 83.2601C87.8942 81.8263 87.5506 80.4176 86.93 79.1244L86.9279 79.1201L65.2379 34.1065L65.2368 34.1043C64.5171 32.6138 64.2662 30.94 64.5174 29.3039C64.7685 27.6678 65.5099 26.1464 66.6436 24.9403C67.7773 23.7343 69.2501 22.9004 70.8675 22.5486C72.4849 22.1969 74.171 22.3439 75.7032 22.9701L75.705 22.9709L121.953 41.8395L121.958 41.8414C123.287 42.3811 124.715 42.6369 126.148 42.5926C127.582 42.5483 128.991 42.2047 130.284 41.584L130.288 41.582L175.302 19.892L175.304 19.8909C176.795 19.1712 178.469 18.9203 180.105 19.1715C181.741 19.4226 183.262 20.164 184.468 21.2977C185.674 22.4314 186.508 23.9042 186.86 25.5216C187.212 27.139 187.065 28.8251 186.438 30.3573L186.438 30.3591L167.569 76.6075L167.567 76.6123C167.027 77.9415 166.772 79.3687 166.816 80.8025C166.86 82.2363 167.204 83.645 167.824 84.9383L167.827 84.9425L189.384 129.683L189.392 129.7L189.401 129.717C190.17 131.264 190.443 133.01 190.184 134.718C189.926 136.423 189.15 138.006 187.961 139.255C186.833 140.415 185.384 141.21 183.799 141.54C182.211 141.869 180.56 141.715 179.061 141.096L179.049 141.092L132.801 122.223L132.796 122.221C131.467 121.682 130.04 121.426 128.606 121.47C127.172 121.514 125.764 121.858 124.47 122.479L124.466 122.481L79.4525 144.171L79.443 144.175C77.9578 144.897 76.2877 145.149 74.6558 144.896C73.0239 144.644 71.508 143.899 70.3105 142.762ZM211.163 113.418L211.163 113.417L221.973 86.9123C222.326 86.0477 222.493 85.1186 222.465 84.1853C222.436 83.2519 222.211 82.335 221.805 81.494L209.38 55.7092C209.38 55.709 209.38 55.7088 209.38 55.7086C209.018 54.9562 208.892 54.1118 209.019 53.2866C209.147 52.4612 209.521 51.6937 210.093 51.0852C210.665 50.4766 211.408 50.0557 212.224 49.8776C213.04 49.6997 213.89 49.7729 214.663 50.0877C214.664 50.0877 214.664 50.0878 214.664 50.0879L241.167 60.8967C242.032 61.2498 242.961 61.4174 243.894 61.3886C244.827 61.3597 245.744 61.1351 246.585 60.7292L272.187 48.3883L272.203 48.3806L272.219 48.3726C272.921 48.024 273.704 47.8723 274.486 47.9335C275.259 47.994 276.001 48.2607 276.636 48.7054C277.367 49.2502 277.898 50.0219 278.145 50.9004C278.395 51.7871 278.341 52.7317 277.993 53.5844L277.992 53.5865L267.183 80.0911C266.83 80.9556 266.662 81.8847 266.691 82.818C266.72 83.7514 266.944 84.6683 267.35 85.5094L279.776 111.294C279.776 111.294 279.776 111.295 279.776 111.295C280.138 112.047 280.263 112.892 280.136 113.717C280.009 114.542 279.635 115.31 279.063 115.918C278.49 116.527 277.748 116.948 276.932 117.126C276.116 117.304 275.265 117.23 274.492 116.916C274.492 116.916 274.492 116.916 274.491 116.915L247.988 106.107C247.124 105.754 246.195 105.586 245.261 105.615C244.328 105.644 243.411 105.868 242.57 106.274L216.784 118.7L216.783 118.701C216.03 119.064 215.185 119.19 214.359 119.063C213.534 118.936 212.766 118.562 212.157 117.991C211.549 117.418 211.128 116.675 210.951 115.859C210.773 115.042 210.847 114.191 211.163 113.418ZM182.247 -5.14905L162.686 -13.1292C162.684 -13.13 162.682 -13.1307 162.68 -13.1314C161.855 -13.4701 160.968 -13.6309 160.076 -13.6033C159.185 -13.5758 158.309 -13.3604 157.507 -12.9715C157.505 -12.9706 157.503 -12.9698 157.501 -12.969L138.47 -3.79548C138.47 -3.79534 138.47 -3.7952 138.469 -3.79507C137.826 -3.48538 137.104 -3.37779 136.398 -3.48647C135.692 -3.59519 135.035 -3.91522 134.515 -4.4044L182.247 -5.14905Z" fill="#FF0052" stroke="black" stroke-width="6.13238"/>
</g>
<defs>
<clipPath id="clip0_23_193">
<rect width="230.404" height="230.404" fill="white" transform="translate(157.808 -87) rotate(43.2292)"/>
</clipPath>
</defs>
</svg>
