<svg width="120" height="120" viewBox="0 0 120 120" fill="none" xmlns="http://www.w3.org/2000/svg">
<g clip-path="url(#clip0_23_296)">
<path d="M17.7844 74.5831C17.3483 73.8364 17.1504 72.9744 17.2172 72.1123C17.284 71.2501 17.6123 70.4289 18.1583 69.7583L30.0949 54.9997C30.3351 54.7017 30.5104 54.3567 30.6094 53.987C30.7085 53.6173 30.7292 53.231 30.6702 52.8528L27.714 34.0961C27.5787 33.2421 27.7055 32.3671 28.0777 31.5867C28.45 30.8062 29.0501 30.157 29.799 29.7246C30.5478 29.2923 31.4101 29.0972 32.2721 29.165C33.1342 29.2329 33.9553 29.5605 34.6273 30.1047L49.386 42.0414C49.684 42.2815 50.0289 42.4568 50.3986 42.5558C50.7683 42.6549 51.1546 42.6756 51.5328 42.6166L70.2895 39.6604C71.1435 39.5251 72.0185 39.6519 72.799 40.0242C73.5794 40.3964 74.2287 40.9965 74.661 41.7454C75.0934 42.4942 75.2885 43.3565 75.2206 44.2186C75.1527 45.0806 74.8251 45.9018 74.2809 46.5737L62.3443 61.3324C62.1041 61.6304 61.9288 61.9753 61.8298 62.345C61.7307 62.7147 61.71 63.101 61.769 63.4792L64.7069 82.1221C64.8573 83.0054 64.7318 83.9135 64.3476 84.723C63.9634 85.5324 63.3391 86.2037 62.5597 86.6457C61.8173 87.0592 60.968 87.2404 60.1215 87.1658C59.2751 87.0912 58.4705 86.7643 57.8119 86.2273L43.0533 74.2907C42.7553 74.0505 42.4103 73.8753 42.0406 73.7762C41.6709 73.6771 41.2846 73.6564 40.9064 73.7154L22.1497 76.6716C21.296 76.8092 20.4206 76.6829 19.6406 76.3097C18.8605 75.9365 18.213 75.3341 17.7844 74.5831ZM57.2853 28.0812C57.0319 27.6422 56.9174 27.1367 56.9569 26.6313C56.9965 26.1258 57.1882 25.6443 57.5069 25.25L62.558 19.0045C62.6687 18.8684 62.7495 18.7104 62.7949 18.5409C62.8403 18.3714 62.8494 18.1942 62.8215 18.021L61.5699 10.0867C61.4911 9.58592 61.5659 9.07304 61.7844 8.61563C62.0029 8.15821 62.3548 7.77771 62.7938 7.52425C63.2328 7.27079 63.7383 7.15627 64.2437 7.19577C64.749 7.23527 65.2306 7.42694 65.6249 7.74554L71.8704 12.7966C72.0067 12.9071 72.1646 12.9876 72.3341 13.033C72.5035 13.0784 72.6806 13.0877 72.8539 13.0601L80.7176 11.8197C81.177 11.7405 81.6493 11.7881 82.0837 11.9572C82.5182 12.1263 82.8983 12.4106 83.1833 12.7795C83.519 13.2262 83.696 13.7721 83.6862 14.3308C83.6765 14.8895 83.4805 15.4289 83.1293 15.8635L78.0783 22.109C77.9678 22.2453 77.8872 22.4033 77.8418 22.5727C77.7964 22.7422 77.7872 22.9193 77.8147 23.0925L79.0663 31.0268C79.1451 31.5276 79.0703 32.0405 78.8518 32.4979C78.6334 32.9553 78.2814 33.3358 77.8424 33.5893C77.4034 33.8427 76.898 33.9572 76.3926 33.9177C75.8872 33.8782 75.4056 33.6866 75.0114 33.368L68.7658 28.3169C68.6297 28.2062 68.4718 28.1254 68.3023 28.08C68.1328 28.0346 67.9556 28.0255 67.7824 28.0534L59.848 29.305C59.3472 29.3838 58.8343 29.3091 58.3769 29.0906C57.9194 28.8722 57.5388 28.5203 57.2853 28.0812ZM72.1151 81.1289C71.8387 80.6498 71.714 80.0983 71.7573 79.547C71.8007 78.9956 72.0101 78.4704 72.358 78.0404L79.1977 69.5814C79.3183 69.4324 79.4062 69.2598 79.4558 69.0747C79.5054 68.8895 79.5156 68.6961 79.4856 68.5068L77.7918 57.7611C77.706 57.2151 77.7876 56.6558 78.0259 56.157C78.2642 55.6582 78.648 55.2433 79.1267 54.9669C79.6054 54.6906 80.1567 54.5656 80.7078 54.6087C81.2589 54.6517 81.784 54.8606 82.214 55.208L90.6731 62.0477C90.8221 62.1683 90.9947 62.2562 91.1798 62.3058C91.3649 62.3554 91.5584 62.3656 91.7477 62.3356L102.417 60.6525C102.918 60.5674 103.433 60.6198 103.907 60.8041C104.381 60.9884 104.796 61.2978 105.108 61.6992C105.474 62.1867 105.667 62.7826 105.656 63.3922C105.645 64.0018 105.43 64.5902 105.047 65.064L98.2068 73.5231C98.0862 73.6721 97.9983 73.8447 97.9487 74.0298C97.899 74.2149 97.8889 74.4084 97.9188 74.5977L99.6127 85.3433C99.6985 85.8894 99.6168 86.4487 99.3786 86.9474C99.1403 87.4462 98.7565 87.8611 98.2778 88.1375C97.799 88.4139 97.2478 88.5388 96.6967 88.4958C96.1456 88.4528 95.6205 88.2438 95.1904 87.8965L86.7314 81.0568C86.5824 80.9362 86.4098 80.8482 86.2247 80.7986C86.0396 80.749 85.8461 80.7389 85.6568 80.7688L74.9112 82.4627C74.3649 82.549 73.8053 82.4677 73.3062 82.2296C72.807 81.9915 72.3917 81.6077 72.1151 81.1289Z" fill="#00F3FF"/>
</g>
<defs>
<clipPath id="clip0_23_296">
<rect width="87.5576" height="87.5576" fill="white" transform="translate(75.8271) rotate(60)"/>
</clipPath>
</defs>
</svg>
